<?xml version="1.0" standalone="no"?>
<svg version="1.0" xmlns="http://www.w3.org/2000/svg"
 width="25px" height="30px" viewBox="0 0 48.000000 48.000000"
 preserveAspectRatio="xMidYMid meet">

<g transform="translate(0.000000,48.000000) scale(0.100000,-0.100000)"
fill="#fff" stroke="none">
<path d="M225 414 c-9 -9 -14 -23 -11 -31 3 -7 -4 -33 -16 -57 -20 -43 -22
-44 -61 -38 -53 7 -67 -12 -67 -94 0 -82 12 -114 44 -114 35 0 56 10 56 27 0
10 6 13 18 8 34 -13 82 -17 127 -11 54 9 79 40 90 112 10 67 -9 98 -63 102
-41 3 -42 4 -42 38 0 21 -8 42 -20 54 -24 24 -34 25 -55 4z m45 -70 l0 -44 38
0 c20 0 43 -4 51 -9 23 -14 22 -94 -1 -130 -19 -29 -24 -31 -79 -31 -32 0 -70
5 -84 12 -22 10 -25 18 -25 59 0 32 5 49 15 52 17 7 52 74 59 113 2 16 5 30 5
32 1 2 6 0 11 -3 6 -3 10 -26 10 -51z m-130 -159 c0 -60 -3 -75 -15 -75 -12 0
-15 15 -15 75 0 60 3 75 15 75 12 0 15 -15 15 -75z"/>
</g>
</svg>
