<?xml version="1.0" standalone="no"?>
<svg fill="#fff" version="1.0" xmlns="http://www.w3.org/2000/svg"
 width="30px" height="24px" viewBox="0 0 48.000000 48.000000"
 preserveAspectRatio="xMidYMid meet">

<g transform="translate(0.000000,48.000000) scale(0.100000,-0.100000)"
fill="#fff" stroke="none">
<path d="M220 410 c-6 -11 -8 -25 -5 -30 3 -5 -6 -32 -20 -59 -20 -41 -25 -65
-25 -125 l0 -74 31 -11 c35 -12 100 -13 139 -2 35 10 62 62 64 125 1 68 -13
86 -70 86 l-44 0 0 38 c0 60 -47 94 -70 52z"/>
<path d="M80 271 c-13 -25 -13 -131 0 -165 10 -28 47 -35 68 -14 13 13 17 153
6 182 -9 23 -61 21 -74 -3z"/>
</g>
</svg>
