<?xml version="1.0"?><svg fill="#fff" xmlns="http://www.w3.org/2000/svg"  viewBox="0 0 24 24" width="30px" height="30px">    <path d="M 12 3 C 9.108 3 6.6025625 4.6381563 5.3515625 7.0351562 C 2.3425625 7.3591563 0 9.906 0 13 C 0 16.314 2.686 19 6 19 L 6.5957031 19 L 7.3359375 17.890625 L 7.9296875 17 L 6 17 C 3.794 17 2 15.206 2 13 C 2 10.952 3.5324531 9.2433906 5.5644531 9.0253906 L 6.6289062 8.9101562 L 7.1230469 7.9609375 C 8.0770469 6.1349375 9.947 5 12 5 C 14.617 5 16.884578 6.8608281 17.392578 9.4238281 L 17.689453 10.921875 L 19.212891 11.03125 C 20.775891 11.14225 22 12.447 22 14 C 22 15.654 20.654 17 19 17 L 18.404297 17 L 17.664062 18.109375 L 17.070312 19 L 19 19 C 21.761 19 24 16.761 24 14 C 24 11.36 21.948469 9.2201563 19.355469 9.0351562 C 18.674469 5.5941562 15.641 3 12 3 z M 13 13 L 9 19 L 12 19 L 12 23 L 16 17 L 13 17 L 13 13 z"/></svg>