<svg fill="#fff" xmlns="http://www.w3.org/2000/svg"  viewBox="0 0 24 24" width="30px" height="30px"><path d="M 9 3 C 7.9045455 3 7 3.9045455 7 5 L 7 6 L 4 6 C 2.9045455 6 2 6.9045455 2 8 L 2 19 C 2 20.095455 2.9045455 21 4 21 L 20 21 C 21.095455 21 22 20.095455 22 19 L 22 8 C 22 6.9045455 21.095455 6 20 6 L 17 6 L 17 5 C 17 3.9045455 16.095455 3 15 3 L 9 3 z M 9 5 L 15 5 L 15 6 C 15 7.0954545 15.904545 8 17 8 L 20 8 L 20 19 L 4 19 L 4 8 L 7 8 C 8.0954545 8 9 7.0954545 9 6 L 9 5 z M 12 9 C 9.8027056 9 8 10.802706 8 13 C 8 15.197294 9.8027056 17 12 17 C 14.197294 17 16 15.197294 16 13 C 16 10.802706 14.197294 9 12 9 z M 18 9 A 1 1 0 0 0 17 10 A 1 1 0 0 0 18 11 A 1 1 0 0 0 19 10 A 1 1 0 0 0 18 9 z M 12 11 C 13.116414 11 14 11.883586 14 13 C 14 14.116414 13.116414 15 12 15 C 10.883586 15 10 14.116414 10 13 C 10 11.883586 10.883586 11 12 11 z"/></svg>