<svg fill="#fff" xmlns="http://www.w3.org/2000/svg"  viewBox="0 0 24 24" width="30px" height="30px"><path d="M 9.3339844 3 C 7.222651 3 5.3300781 3.9941406 5.3300781 3.9941406 L 4.8574219 4.2324219 L 2.7460938 20.052734 L 4.4804688 19.097656 C 4.4804688 19.097656 6.6782396 18 7.9980469 18 C 8.3246172 18 9.6930935 18.617188 10.996094 19.367188 C 12.299094 20.117188 13.536852 21 14.988281 21 C 17.099615 21 18.744141 19.964844 18.744141 19.964844 L 19.150391 19.714844 L 19.212891 19.244141 L 21.302734 3.5703125 L 19.40625 4.9746094 C 19.40625 4.9746094 17.888862 6 16.570312 6 C 16.244559 6 14.798491 5.3730593 13.433594 4.6230469 C 12.068696 3.8730345 10.785414 3 9.3339844 3 z M 9.3339844 5 C 9.6170554 5 10.766032 5.5052095 11.949219 6.1191406 L 11.402344 10.052734 C 10.407952 9.4915013 9.4205938 9 8.3339844 9 C 7.5486653 9 6.8339666 9.1495038 6.1953125 9.3222656 L 6.6914062 5.6035156 C 7.2043819 5.3897669 8.2219061 5 9.3339844 5 z M 13.828125 7.1269531 C 14.716805 7.6052187 15.60664 8 16.570312 8 C 17.431627 8 18.115751 7.7119329 18.767578 7.453125 L 18.251953 11.314453 C 17.640334 11.573805 16.499071 12 15.515625 12 C 15.2631 12 14.309361 11.578797 13.28125 11.060547 L 13.828125 7.1269531 z M 8.3339844 11 C 8.6322431 11 9.8656403 11.545286 11.103516 12.207031 L 10.470703 16.761719 C 9.6830736 16.337397 8.880376 16 7.9980469 16 C 6.9899258 16 6.0280093 16.307007 5.2226562 16.607422 L 5.9023438 11.521484 C 6.5030041 11.289425 7.3720835 11 8.3339844 11 z M 12.980469 13.228516 C 13.797931 13.657721 14.623224 14 15.515625 14 C 16.402425 14 17.248788 13.808985 17.949219 13.585938 L 17.302734 18.439453 C 16.883744 18.646683 16.079543 19 14.988281 19 C 14.691097 19 13.52982 18.481411 12.341797 17.824219 L 12.980469 13.228516 z"/></svg>