<svg fill="#fff" xmlns="http://www.w3.org/2000/svg"  viewBox="0 0 24 24" width="30px" height="30px"><path d="M 19.103516 2.0039062 C 18.957256 1.9952936 18.80856 2.0032547 18.658203 2.0292969 L 18.65625 2.0292969 L 4.65625 4.4707031 C 3.7053181 4.6368744 3 5.4756537 3 6.4394531 L 3 17.560547 C 3 18.524346 3.7053181 19.363126 4.65625 19.529297 L 18.65625 21.970703 L 18.658203 21.970703 C 19.86101 22.179041 21 21.222181 21 20 L 21 4 C 21 2.9305917 20.127335 2.0641948 19.103516 2.0039062 z M 18.998047 4 L 19 4 L 19 11 L 12 11 L 12 5.21875 L 18.998047 4 z M 10 5.5683594 L 10 11 L 5 11 L 5 6.4394531 L 10 5.5683594 z M 5 13 L 10 13 L 10 18.431641 L 5 17.560547 L 5 13 z M 12 13 L 19 13 L 19 20 L 18.998047 20 L 12 18.78125 L 12 13 z"/></svg>