<svg fill="#fff" height="30px" width="30px" xmlns="http://www.w3.org/2000/svg" shape-rendering="geometricPrecision" text-rendering="geometricPrecision" image-rendering="optimizeQuality" fill-rule="evenodd" clip-rule="evenodd" viewBox="0 0 512 234.01"><path fill-rule="nonzero" d="M133.14 22.39C156.3-5.45 167.3-2.1 190.68 5.03c3.02.91 6.31 1.92 10.8 3.13 17.02 4.6 33.77 7.46 50.52 7.9 16.68.43 33.57-1.53 51-6.55 4.61-1.32 8.3-2.57 11.73-3.72 22.32-7.5 35.86-12.06 59.9 14.72 9.59 10.68 17.3 24.47 23.48 38.22 6.09 13.56 10.61 26.8 13.98 36.98 4.03 12.17 7.46 24.64 10.33 37.38 2.35 10.43 4.29 20.97 5.85 31.6h49.06c9.54 0 18.21 3.89 24.49 10.17l.46.5c6.01 6.25 9.72 14.72 9.72 23.99 0 9.54-3.9 18.21-10.18 24.49l-.5.45c-6.23 6.01-14.71 9.72-23.99 9.72H34.66c-9.54 0-18.2-3.89-24.48-10.17C3.9 217.56 0 208.89 0 199.35s3.9-18.21 10.18-24.49c6.28-6.28 14.94-10.17 24.48-10.17H84.1c5.62-27.7 11.82-53.98 19.21-77.32 8.06-25.43 17.59-47.53 29.42-64.45l.41-.53zm239.45 158.46H34.66c-5.08 0-9.71 2.08-13.06 5.44-3.35 3.35-5.44 7.98-5.44 13.06 0 5.09 2.09 9.71 5.44 13.07 3.35 3.35 7.98 5.43 13.06 5.43h442.67c4.92 0 9.41-1.94 12.74-5.09l.32-.35c3.36-3.35 5.45-7.98 5.45-13.06 0-4.93-1.94-9.42-5.09-12.73l-.35-.33c-3.36-3.36-7.99-5.44-13.07-5.44H372.59zM186 20.43c-16.36-4.99-24.1-7.35-40.28 12-10.64 15.32-19.42 35.88-27 59.8-6.9 21.76-12.74 46.2-18.05 72h311.25a413.19 413.19 0 0 0-5.21-27.61c-2.69-11.95-6-23.91-9.96-35.86-3.31-9.99-7.71-22.92-13.35-35.47-5.55-12.37-12.41-24.68-20.76-33.99-16.98-18.92-26.74-15.64-42.8-10.23-3.97 1.33-8.26 2.78-12.42 3.97-18.97 5.46-37.45 7.58-55.79 7.11-18.27-.47-36.23-3.52-54.32-8.4-3.6-.97-7.63-2.2-11.31-3.32z"/></svg>