<svg fill="#fff" height="30px" width="30px" xmlns="http://www.w3.org/2000/svg" shape-rendering="geometricPrecision" text-rendering="geometricPrecision" image-rendering="optimizeQuality" fill-rule="evenodd" clip-rule="evenodd" viewBox="0 0 393 512.59"><path fill-rule="nonzero" d="M243.12 368.5H115.35L89.44 512.45c-.01.08-.09.14-.17.14H69.46c-.1 0-.18-.08-.18-.17L95.31 368.5H.17c-.09 0-.17-.08-.17-.17V349.6c0-.1.08-.18.17-.18h98.81l33.31-184.09H26.95c-.09 0-.17-.08-.17-.17v-18.73c0-.1.08-.18.17-.18h108.89L162.23.15c.01-.09.09-.15.17-.15h19.69c.09 0 .18.08.18.17l-26.75 146.08h128.13L310.28.15c.01-.09.09-.15.17-.15h19.69c.1 0 .18.08.18.17l-26.63 146.08h89.14c.09 0 .17.08.17.18v18.73c0 .09-.08.17-.17.17h-92.8l-33.68 184.09h100.06c.09 0 .17.08.17.18v18.73c0 .09-.08.17-.17.17H263.17l-26.39 143.95a.18.18 0 0 1-.17.14h-19.7c-.09 0-.17-.08-.17-.17l26.38-143.92zm-124.11-19.08h127.3l33.68-184.09H151.98l-32.97 184.09z"/></svg>