<svg fill="#fff" xmlns="http://www.w3.org/2000/svg"  viewBox="0 0 64 64" width="30px" height="30px"><path d="M 36.638672 6.875 C 36.200391 6.8418594 35.859953 7.0297813 35.658203 7.3320312 C 35.457203 7.6330312 35.493844 8.3401406 36.089844 8.6191406 C 36.580844 8.8491406 38.342734 9.8214844 39.802734 11.021484 C 41.124734 12.108484 42.139203 13.468094 42.408203 13.871094 C 42.676203 14.274094 43.125844 14.8125 43.589844 14.8125 C 44.271844 14.8125 44.511484 14.21775 44.396484 13.71875 C 44.228484 12.98975 43.060688 11.156781 41.429688 9.8007812 C 39.037687 7.8127812 37.856422 7.2743281 37.107422 6.9863281 C 36.941172 6.9223281 36.784766 6.8860469 36.638672 6.875 z M 22.792969 10.726562 C 21.836736 10.694816 20.718047 10.912656 19.435547 11.582031 C 16.248547 13.246031 16.163922 16.637 16.169922 17.125 C 15.735922 17.31 15.3225 17.547031 14.9375 17.832031 C 12.8965 19.344031 12.067187 21.944859 12.617188 24.380859 C 11.654188 25.104859 10.937766 26.146531 10.634766 27.394531 C 9.9447656 30.239531 10.694797 31.763375 12.466797 35.234375 C 14.711797 39.631375 21.667063 52.947266 33.664062 52.947266 C 40.712063 52.947266 52.451172 47.933531 52.451172 31.644531 C 52.451172 27.248531 52.450297 18.101562 45.529297 18.101562 C 42.940297 18.101563 41.302328 19.383781 40.236328 20.925781 C 38.676328 18.446781 36.817516 15.6475 34.728516 13.6875 C 33.913516 12.9225 32.002266 11.130859 29.322266 11.130859 C 28.218266 11.130859 27.145937 11.448734 26.210938 12.052734 C 25.527813 11.529609 24.386689 10.779473 22.792969 10.726562 z M 22.691406 14.773438 C 23.426289 14.846025 24.034063 15.347188 24.507812 15.992188 C 25.112813 16.815188 32.206187 27.127891 32.742188 27.837891 C 33.244188 28.502891 34.171906 28.047172 33.628906 27.201172 C 33.259906 26.627172 28.524531 18.491797 28.269531 18.091797 C 27.691531 17.185797 27.600469 15.889688 28.355469 15.429688 C 29.904469 14.485688 31.455188 16.099516 31.992188 16.603516 C 35.962187 20.328516 39.52725 28.582031 41.03125 28.582031 C 42.53525 28.582031 42.07025 22.101562 45.53125 22.101562 C 46.50825 22.101562 48.451172 22.289531 48.451172 31.644531 C 48.451172 45.347531 38.852063 48.947266 33.664062 48.947266 C 22.887062 48.947266 16.614828 34.248109 15.423828 32.287109 C 14.233828 30.327109 14.077344 28.166187 15.152344 27.492188 C 16.325344 26.757188 17.426859 27.799719 18.130859 28.636719 C 19.100859 29.788719 22.770719 34.791562 23.761719 36.101562 C 24.542719 37.133562 25.377188 36.089516 24.742188 35.228516 C 23.934188 34.132516 18.555328 26.71225 16.986328 24.53125 C 16.108328 23.31125 16.383359 21.719875 17.318359 21.046875 C 18.376359 20.284875 19.813875 20.620203 20.546875 21.533203 C 21.552875 22.786203 26.484938 29.595516 27.460938 30.853516 C 28.043937 31.604516 28.925906 30.949734 28.378906 30.177734 C 27.908906 29.513734 21.371688 19.683438 20.679688 18.648438 C 19.987688 17.613437 19.855422 16.014969 21.232422 15.167969 C 21.763422 14.841344 22.250477 14.729885 22.691406 14.773438 z M 39.572266 30.945312 C 39.157047 30.941656 38.817844 31.247422 38.683594 31.607422 C 38.421594 32.307422 38.559063 34.126359 39.039062 36.193359 C 39.612063 38.664359 40.065328 39.584719 40.486328 40.261719 C 40.862328 40.867719 41.505172 41.051281 41.951172 40.863281 C 42.284172 40.723281 42.534437 40.169406 42.273438 39.566406 C 42.054437 39.061406 41.640937 37.810906 41.085938 36.003906 C 40.582937 34.366906 40.515672 33.073844 40.513672 32.589844 C 40.511672 32.105844 40.498812 31.319547 40.007812 31.060547 C 39.857063 30.981047 39.710672 30.946531 39.572266 30.945312 z M 35.701172 31.039062 C 35.569344 31.020297 35.434547 31.028297 35.310547 31.060547 C 34.587547 31.249547 33.099125 32.288187 31.703125 33.992188 C 29.732125 36.398187 28.921297 37.631672 28.654297 38.388672 C 28.417297 39.060672 28.629062 39.571125 29.039062 39.828125 C 29.345062 40.020125 30.018156 39.779953 30.410156 39.251953 C 30.765156 38.773953 31.858578 37.126766 33.017578 35.634766 C 34.067578 34.281766 35.229656 33.339391 35.597656 33.025391 C 36.061656 32.629391 36.497375 32.356578 36.484375 31.892578 C 36.470125 31.381078 36.096656 31.095359 35.701172 31.039062 z M 10.525391 42.955078 C 9.8213906 42.942078 9.5535625 43.456797 9.6015625 43.966797 C 9.6705625 44.711797 10.786266 47.693828 13.447266 50.673828 C 15.518266 52.992828 19.100687 55.355234 19.804688 55.740234 C 20.429688 56.083234 20.967109 55.955797 21.287109 55.591797 C 21.525109 55.320797 21.58425 54.614766 21.03125 54.259766 C 20.57625 53.966766 17.635859 52.17625 15.130859 49.53125 C 13.172859 47.46325 11.688047 44.363969 11.498047 43.917969 C 11.220047 43.265969 10.989391 42.963078 10.525391 42.955078 z"/></svg>