<?xml version="1.0" encoding="utf-8"?><svg fill="#fff" height="30px" width="30px" version="1.1" id="Layer_1" xmlns="http://www.w3.org/2000/svg" xmlns:xlink="http://www.w3.org/1999/xlink" x="0px" y="0px" viewBox="0 0 122.88 74.56" style="enable-background:new 0 0 122.88 74.56" xml:space="preserve"><g><path d="M111.97,32.02H71.78c-0.82,1.72-1.44,3.41-1.9,5.07c-0.49,1.79-0.78,3.53-0.89,5.23c-0.17,2.74,0.13,5.36,0.81,7.82 c0.73,2.62,1.89,5.07,3.39,7.29c1.44,2.14,3.18,4.08,5.14,5.78c2.03,1.76,4.29,3.28,6.69,4.49c1.92,0.98,3.92,1.76,5.94,2.33 c2,0.57,4.03,0.92,6.03,1.05c2.74,0.17,5.26-0.09,7.53-0.72c2.42-0.67,4.57-1.74,6.43-3.12c1.66-1.23,3.09-2.7,4.29-4.35l0.02-0.02 c1.24-1.71,2.22-3.6,2.94-5.6c0.72-1.99,1.17-4.09,1.34-6.22c0.17-2.11,0.08-4.25-0.31-6.34c-0.45-2.48-1.31-4.89-2.6-7.11 C115.46,35.55,113.9,33.66,111.97,32.02L111.97,32.02z M13.54,28.27h95.97C105.15,22.25,99.28,15,95.46,8.87 c-1.07-1.73-2.09-3.05-3.04-4.03c-1.02-1.05-1.95-1.7-2.78-2.02L89.6,2.79c-0.33-0.12-0.64-0.19-0.92-0.2 c-0.3-0.01-0.57,0.03-0.82,0.13c-0.24,0.09-0.47,0.24-0.68,0.43c-0.23,0.21-0.43,0.46-0.61,0.76c-0.41,0.67-0.7,1.54-0.84,2.52 c-0.14,0.98-0.14,2.08,0.02,3.22l0,0.01c0.05,0.35-0.05,0.68-0.25,0.95c-0.2,0.27-0.5,0.46-0.85,0.51l0,0 c-0.35,0.05-0.69-0.05-0.96-0.25c-0.27-0.2-0.45-0.5-0.51-0.85l0,0c-0.2-1.42-0.19-2.81,0-4.06c0.2-1.29,0.6-2.46,1.17-3.39 c0.33-0.54,0.71-1,1.14-1.39c0.43-0.38,0.91-0.67,1.43-0.88c0.55-0.21,1.14-0.32,1.77-0.3c0.58,0.02,1.19,0.13,1.82,0.37 c0.02,0,0.04,0.01,0.06,0.02L90.6,0.4c1.1,0.43,2.29,1.23,3.53,2.48c1.13,1.14,2.31,2.65,3.52,4.59l15.53,21.44 c0.05,0.02,0.1,0.04,0.14,0.07c0.08,0.05,0.17,0.1,0.24,0.16c2.4,1.92,4.32,4.17,5.77,6.63c1.54,2.61,2.57,5.46,3.11,8.38 c0.44,2.37,0.55,4.8,0.35,7.18c-0.2,2.41-0.71,4.78-1.53,7.05c-0.83,2.3-1.97,4.48-3.4,6.45c-1.39,1.9-3.05,3.6-4.97,5.03 c-2.17,1.61-4.66,2.86-7.46,3.63c-2.62,0.73-5.51,1.04-8.64,0.84c-2.22-0.14-4.47-0.53-6.69-1.16c-2.24-0.63-4.44-1.49-6.55-2.57 c-2.62-1.34-5.11-3-7.35-4.95c-2.16-1.88-4.09-4.03-5.69-6.41c-1.66-2.47-2.96-5.18-3.79-8.1c-0.76-2.67-1.12-5.51-0.99-8.48 c-0.68-0.42-1.36-0.73-2.01-0.95c-0.71-0.23-1.41-0.35-2.1-0.34c-0.74,0-1.47,0.14-2.2,0.41c-0.75,0.28-1.49,0.69-2.23,1.24 l-0.03,0.02c0.1,2.93-0.26,5.73-1.02,8.37c-0.83,2.87-2.12,5.55-3.76,8c-1.6,2.38-3.53,4.53-5.69,6.41 c-2.24,1.95-4.73,3.62-7.35,4.95c-2.11,1.07-4.31,1.94-6.55,2.57c-2.22,0.62-4.47,1.02-6.69,1.16c-3.13,0.2-6.02-0.11-8.64-0.84 c-2.8-0.78-5.29-2.03-7.46-3.63C8.07,68.6,6.41,66.9,5.02,65c-1.44-1.97-2.58-4.15-3.4-6.45c-0.81-2.26-1.33-4.64-1.53-7.05 c-0.2-2.39-0.08-4.81,0.35-7.18c0.54-2.92,1.56-5.77,3.11-8.38c1.46-2.46,3.37-4.72,5.77-6.63c0.09-0.07,0.18-0.13,0.28-0.18 c0.06-0.03,0.11-0.05,0.17-0.08L25.41,7.46c1.21-1.94,2.39-3.45,3.52-4.59c1.25-1.26,2.45-2.06,3.55-2.49l0.04-0.01 c0.63-0.24,1.25-0.36,1.83-0.37c0.63-0.02,1.22,0.09,1.77,0.3c0.53,0.2,1.01,0.5,1.43,0.88c0.43,0.38,0.82,0.85,1.14,1.39 c0.57,0.93,0.97,2.1,1.17,3.39c0.2,1.26,0.2,2.64,0,4.07l0,0.01c-0.05,0.35-0.24,0.64-0.5,0.84c-0.27,0.2-0.61,0.3-0.96,0.25 c-0.35-0.05-0.66-0.24-0.85-0.51c-0.2-0.27-0.3-0.61-0.25-0.96v0c0.16-1.15,0.16-2.24,0.02-3.22c-0.14-0.98-0.43-1.85-0.84-2.52 c-0.18-0.3-0.39-0.56-0.61-0.76c-0.21-0.19-0.44-0.34-0.68-0.43c-0.25-0.09-0.52-0.14-0.82-0.13c-0.28,0.01-0.58,0.07-0.91,0.19 L33.4,2.81c-0.83,0.32-1.76,0.97-2.77,2.02c-0.95,0.98-1.97,2.31-3.05,4.05l-0.02,0.03c-0.01,0.02-0.02,0.04-0.04,0.06L13.54,28.27 L13.54,28.27z M68.78,30.77H54.02c0.7,1.48,1.28,2.95,1.74,4.4c0.47,1.49,0.82,2.96,1.06,4.4c0.69-0.38,1.4-0.69,2.11-0.9 c0.88-0.27,1.77-0.4,2.68-0.41c0.82,0,1.65,0.1,2.48,0.32c0.66,0.17,1.33,0.42,1.99,0.73c0.23-1.41,0.57-2.84,1.03-4.29 C67.55,33.63,68.11,32.21,68.78,30.77L68.78,30.77z M51.1,32.2H10.91c-1.94,1.63-3.49,3.53-4.68,5.59 c-1.28,2.22-2.14,4.64-2.6,7.11c-0.38,2.09-0.48,4.23-0.31,6.34c0.18,2.13,0.63,4.23,1.34,6.22c0.72,2.01,1.71,3.91,2.96,5.62 c1.2,1.65,2.64,3.12,4.29,4.35c1.86,1.38,4.01,2.45,6.43,3.12c2.27,0.63,4.79,0.89,7.53,0.72c2-0.13,4.03-0.48,6.03-1.05 c2.02-0.57,4.02-1.36,5.94-2.33c2.39-1.22,4.65-2.73,6.69-4.49c1.96-1.7,3.7-3.64,5.14-5.78c1.5-2.23,2.66-4.67,3.39-7.29 c0.68-2.46,0.98-5.08,0.81-7.82c-0.11-1.7-0.4-3.45-0.89-5.23C52.54,35.62,51.92,33.92,51.1,32.2L51.1,32.2z"/></g></svg>