<svg fill="#fff" xmlns="http://www.w3.org/2000/svg"  viewBox="0 0 64 64" width="30px" height="30px"><path d="M53.854,41.708c0.306,0.98,0.167,2.01-0.77,2.958c-1.495,1.512-4.103,1.89-4.433,2.201c-0.33,0.312-0.475,1.495-1.526,2.171	c-1.052,0.676-2.349,0.659-3.014,0.709c-2.677,0.204-3.378,0.328-5.047,1.393c-0.539,0.344-3.187,2.16-7.064,2.16	s-6.525-1.816-7.064-2.16c-1.669-1.065-2.37-1.189-5.047-1.393c-0.665-0.051-1.962-0.033-3.014-0.709	c-1.052-0.676-1.197-1.86-1.526-2.171c-0.33-0.312-2.938-0.689-4.433-2.201c-0.937-0.948-1.075-1.978-0.77-2.958	c0.402-1.289,1.812-1.735,2.627-2.201c4.464-2.555,5.179-4.996,5.391-5.358c0.085-0.146,0.295-0.631-0.18-1.018	c-0.439-0.358-2.781-1.497-3.766-3.212c-0.511-0.89-0.646-2.247-0.185-3.194c0.738-1.516,1.96-2.399,3.654-2.399	c0.62,0,1.247,0.159,1.337,0.181c0.034-0.977,0.036-2.109,0.099-3.13C19.385,17.11,22.966,10,32,10s12.615,7.11,12.877,11.376	c0.063,1.021,0.065,2.153,0.099,3.13c0.09-0.021,0.717-0.181,1.337-0.181c1.694,0,2.917,0.884,3.654,2.399	c0.461,0.948,0.327,2.304-0.185,3.194c-0.986,1.715-3.328,2.854-3.766,3.212c-0.475,0.388-0.265,0.873-0.18,1.018	c0.211,0.361,0.926,2.803,5.391,5.358C52.042,39.973,53.452,40.42,53.854,41.708z M48.086,42.776	c0.179-0.054,0.614-0.128,0.624-0.176c0.015-0.073-2.017-1.093-3.124-2.169c-2.282-2.216-4.006-5.528-4.198-6.064	c-0.284-0.795-0.481-1.649,0.397-2.672c0.556-0.647,1.199-1.256,2.077-1.932c0.595-0.458,2.191-1.344,2.138-1.42	c-0.079-0.113-2.862,0.673-3.214,0.782c-0.423,0.131-0.64,0.198-0.929,0.272c-0.486,0.125-0.738-0.182-0.738-0.602	c0-0.454-0.18-6.131-0.191-6.69c-0.064-3.278-2.307-8.119-8.927-8.119s-8.862,4.841-8.927,8.119	c-0.011,0.559-0.191,6.236-0.191,6.69c0,0.42-0.253,0.726-0.738,0.602c-0.289-0.074-0.506-0.141-0.929-0.272	c-0.351-0.109-3.135-0.895-3.214-0.782c-0.053,0.076,1.542,0.962,2.138,1.42c0.878,0.675,1.521,1.284,2.077,1.932	c0.878,1.023,0.681,1.877,0.397,2.672c-0.191,0.536-1.916,3.848-4.198,6.064c-1.107,1.075-3.139,2.096-3.124,2.169	c0.01,0.048,0.444,0.122,0.623,0.176c0.422,0.128,1.208,0.459,1.819,0.863c0.522,0.346,0.978,0.875,1.174,1.171	c0.303,0.41,0.326,0.819,0.376,0.87c0.05,0.05,0.969,0.087,1.482,0.118c2.781,0.169,4.301,0.54,6.276,1.861	c1.484,0.993,3.062,1.655,4.959,1.655s3.475-0.662,4.959-1.655c1.975-1.321,3.494-1.692,6.276-1.861	c0.512-0.031,1.431-0.067,1.482-0.118c0.05-0.051,0.073-0.46,0.376-0.87c0.196-0.296,0.651-0.825,1.174-1.171	C46.877,43.234,47.664,42.904,48.086,42.776z"/></svg>